<svg xmlns="http://www.w3.org/2000/svg" version="1.0" preserveAspectRatio="xMidYMid meet" viewBox="56 126.86 194.77 48.18">

<g transform="translate(0.000000,300.000000) scale(0.100000,-0.100000)" fill="#764c83" stroke="none">
<path d="M1462 1718 c-18 -18 -15 -28 8 -28 18 0 20 -7 20 -60 l0 -60 30 0 30 0 0 80 0 80 -38 0 c-21 0 -43 -5 -50 -12z" fill="#764c83"/>
<path d="M1662 1707 c-18 -19 -22 -35 -22 -88 0 -56 4 -69 23 -87 41 -38 47 -29 47 68 0 89 0 90 25 90 18 0 25 5 25 20 0 30 -69 28 -98 -3z" fill="#764c83"/>
<path d="M1780 1640 c0 -89 0 -90 -25 -90 -18 0 -25 -5 -25 -20 0 -28 58 -27 94 1 24 19 26 27 26 89 0 62 -2 70 -26 89 -15 12 -31 21 -35 21 -5 0 -9 -40 -9 -90z" fill="#764c83"/>
<path d="M1045 1703 c-59 -8 -141 -35 -206 -69 -66 -35 -192 -149 -218 -198 -13 -23 -11 -29 25 -75 22 -28 43 -50 47 -51 5 0 38 14 74 30 79 37 167 103 220 167 61 72 124 207 96 202 -5 -1 -21 -4 -38 -6z m-105 -103 c42 -42 14 -110 -46 -110 -59 0 -85 69 -42 110 28 25 62 26 88 0z" fill="#764c83"/>
<path d="M1897 1661 c99 -153 97 -151 127 -151 35 0 33 6 -34 105 -45 66 -54 75 -81 75 l-31 0 19 -29z" fill="#764c83"/>
<path d="M1987 1677 c-3 -7 2 -23 12 -35 l16 -21 23 34 22 35 -34 0 c-19 0 -36 -6 -39 -13z" fill="#764c83"/>
<path d="M690 1581 c-49 -11 -130 -63 -130 -83 0 -5 11 -13 24 -19 22 -11 29 -6 81 46 30 32 54 58 53 59 -2 1 -14 0 -28 -3z" fill="#764c83"/>
<path d="M1897 1545 l-17 -35 30 0 c36 0 46 15 29 46 -17 32 -22 30 -42 -11z" fill="#764c83"/>
<path d="M1450 1530 c0 -18 7 -20 70 -20 63 0 70 2 70 20 0 18 -7 20 -70 20 -63 0 -70 -2 -70 -20z" fill="#764c83"/>
<path d="M1090 1345 l0 -55 -50 0 c-38 0 -50 -4 -50 -15 0 -19 90 -21 108 -3 14 14 16 128 2 128 -5 0 -10 -25 -10 -55z" fill="#764c83"/>
<path d="M1156 1384 c-21 -20 -21 -88 0 -108 18 -18 76 -21 105 -6 15 8 19 21 19 60 0 39 -4 52 -19 60 -29 15 -87 12 -105 -6z m88 -10 c22 -8 22 -80 0 -88 -47 -18 -84 1 -84 44 0 43 37 62 84 44z" fill="#764c83"/>
<path d="M1320 1330 l0 -71 62 3 c66 3 80 16 63 56 -4 9 -8 31 -9 47 -1 29 -2 30 -58 33 l-58 3 0 -71z m98 28 c-3 -7 -19 -14 -36 -16 -44 -4 -40 -20 5 -24 56 -5 55 -28 -1 -28 l-46 0 0 40 0 40 41 0 c28 0 39 -4 37 -12z" fill="#764c83"/>
<path d="M1560 1382 c-30 -24 -42 -122 -16 -122 9 0 16 7 16 15 0 11 12 15 45 15 33 0 45 -4 45 -15 0 -8 5 -15 10 -15 6 0 10 30 10 70 l0 70 -44 0 c-27 0 -52 -7 -66 -18z m90 -37 c0 -23 -4 -25 -45 -25 -37 0 -45 3 -45 18 0 27 9 32 52 32 34 0 38 -3 38 -25z" fill="#764c83"/>
<path d="M1712 1388 c-14 -14 -16 -128 -2 -128 6 0 10 25 10 56 l0 55 48 -3 c39 -3 47 -6 47 -23 0 -16 -8 -21 -37 -23 -47 -4 -54 -32 -8 -32 55 0 89 59 54 94 -18 19 -94 22 -112 4z" fill="#764c83"/>
<path d="M1872 1388 c-14 -14 -16 -128 -2 -128 6 0 10 25 10 56 l0 55 48 -3 c39 -3 47 -6 47 -23 0 -16 -8 -21 -37 -23 -47 -4 -54 -32 -8 -32 55 0 89 59 54 94 -18 19 -94 22 -112 4z" fill="#764c83"/>
<path d="M2020 1330 l0 -70 65 0 c51 0 65 3 65 15 0 12 -13 15 -55 15 l-55 0 0 55 c0 30 -4 55 -10 55 -6 0 -10 -30 -10 -70z" fill="#764c83"/>
<path d="M2170 1330 c0 -40 4 -70 10 -70 6 0 10 30 10 70 0 40 -4 70 -10 70 -6 0 -10 -30 -10 -70z" fill="#764c83"/>
<path d="M2220 1342 c0 -32 5 -63 12 -70 18 -18 108 -16 108 3 0 11 -12 15 -50 15 l-50 0 0 40 0 40 50 0 c38 0 50 4 50 15 0 12 -13 15 -60 15 l-60 0 0 -58z" fill="#764c83"/>
<path d="M2370 1330 c0 -40 4 -70 10 -70 6 0 10 25 10 55 l0 55 51 0 c43 0 50 -3 47 -17 -2 -13 -14 -19 -41 -21 -20 -2 -37 -5 -37 -8 0 -13 68 -63 85 -64 17 0 16 3 -9 23 -28 23 -28 24 -8 29 26 7 39 52 22 73 -8 10 -31 15 -71 15 l-59 0 0 -70z" fill="#764c83"/>
<path d="M805 1336 c-59 -32 -74 -52 -58 -80 6 -12 17 -8 56 21 42 31 90 95 70 92 -5 -1 -35 -15 -68 -33z" fill="#764c83"/>
<path d="M2260 1330 c0 -5 16 -10 35 -10 19 0 35 5 35 10 0 6 -16 10 -35 10 -19 0 -35 -4 -35 -10z" fill="#764c83"/>
</g>
</svg>